<?xml version="1.0" standalone="no"?>
<!DOCTYPE svg PUBLIC "-//W3C//DTD SVG 20010904//EN"
 "http://www.w3.org/TR/2001/REC-SVG-20010904/DTD/svg10.dtd">
<svg version="1.0" xmlns="http://www.w3.org/2000/svg"
 width="1024.000000pt" height="1024.000000pt" viewBox="0 0 1024.000000 1024.000000"
 preserveAspectRatio="xMidYMid meet">
<metadata>
Created by potrace 1.14, written by Peter Selinger 2001-2017
</metadata>
<g transform="translate(0.000000,1024.000000) scale(0.100000,-0.100000)"
fill="#000000" stroke="none">
<path d="M4885 10234 c-262 -19 -349 -28 -470 -45 -771 -110 -1486 -381 -2120
-802 -301 -201 -523 -383 -791 -651 -165 -165 -404 -432 -404 -451 0 -3 490
-5 1089 -5 l1090 0 4 373 c2 248 7 384 15 408 18 53 79 119 136 145 61 29 154
32 212 8 49 -20 109 -77 137 -129 21 -39 22 -52 25 -422 l3 -383 1361 0 c1025
0 1371 -3 1402 -12 120 -35 196 -132 196 -250 0 -117 -71 -216 -181 -251 -45
-15 -114 -17 -553 -17 l-503 0 -17 -82 c-180 -849 -581 -1762 -1140 -2593 -78
-117 -246 -352 -313 -439 l-53 -68 30 -38 c73 -92 304 -347 439 -483 156 -159
317 -300 471 -414 115 -84 145 -118 165 -185 29 -99 13 -176 -51 -247 -58 -65
-116 -91 -198 -91 -50 0 -74 6 -115 28 -211 112 -610 477 -970 887 -58 66
-108 120 -111 120 -3 0 -62 -63 -130 -140 -176 -197 -595 -613 -790 -785 -361
-318 -670 -564 -1025 -817 -206 -146 -468 -319 -504 -331 -52 -18 -133 -15
-186 8 l-46 20 33 -46 c165 -231 567 -655 808 -854 832 -688 1783 -1081 2860
-1181 174 -17 686 -17 860 0 1064 99 2029 494 2835 1160 187 155 287 252 283
275 -3 12 -78 193 -168 404 l-164 382 -1191 0 -1191 0 -49 -112 c-26 -62 -58
-135 -71 -163 -12 -27 -54 -124 -92 -215 -136 -321 -359 -835 -376 -868 -79
-153 -309 -178 -424 -47 -75 85 -86 191 -32 310 10 23 29 66 40 96 12 29 33
78 46 108 14 30 47 107 74 172 27 64 62 145 78 180 16 35 53 120 82 189 28 69
60 143 70 165 10 22 46 105 80 185 34 80 70 163 80 186 11 22 28 65 40 94 12
29 30 74 42 99 11 25 48 109 80 186 33 77 68 159 79 181 10 23 50 117 90 210
39 93 79 187 89 209 10 22 79 184 155 360 76 176 147 343 159 370 13 28 33 77
46 110 13 33 26 65 30 70 4 6 38 82 75 170 37 88 76 180 87 205 11 24 44 101
73 170 29 69 64 150 78 180 13 30 60 138 103 240 82 195 102 233 156 291 138
149 363 176 532 63 49 -33 116 -106 141 -154 8 -15 95 -217 195 -451 100 -233
190 -442 200 -464 10 -22 50 -116 90 -210 39 -93 83 -194 96 -223 13 -29 24
-55 24 -57 0 -2 11 -28 24 -57 13 -29 50 -114 81 -188 31 -74 65 -153 75 -175
10 -22 100 -231 200 -465 222 -520 204 -476 228 -531 11 -25 44 -101 73 -170
28 -68 64 -151 79 -184 15 -33 62 -144 106 -247 43 -103 82 -187 86 -185 28 9
334 440 445 627 392 659 631 1400 704 2190 17 174 17 686 0 860 -91 975 -425
1855 -996 2625 -280 378 -672 770 -1050 1050 -756 561 -1634 899 -2570 990
-152 15 -613 27 -720 19z"/>
<path d="M707 7713 c-13 -21 -55 -96 -94 -168 -330 -616 -527 -1278 -594
-1995 -17 -174 -17 -686 0 -860 66 -712 264 -1378 589 -1985 69 -129 167 -294
230 -388 l40 -59 3 75 c6 119 31 149 224 281 519 352 878 629 1285 989 170
151 562 540 724 717 185 203 219 246 210 262 -4 7 -46 65 -94 128 -391 519
-1060 1537 -1241 1890 -35 68 -39 155 -10 222 23 54 106 130 159 146 95 29
203 1 269 -69 17 -19 86 -126 153 -239 212 -354 581 -924 798 -1230 45 -63 87
-123 94 -133 83 -119 220 -297 227 -293 8 6 102 135 214 296 63 90 217 327
217 334 0 2 18 32 40 65 22 33 40 62 40 65 0 3 20 38 44 78 110 182 329 618
398 793 11 28 26 64 33 80 14 30 57 140 90 225 66 172 154 454 195 620 17 69
34 140 39 158 l9 32 -2134 0 -2134 0 -23 -37z"/>
<path d="M7090 4888 c-29 -67 -63 -147 -76 -176 -13 -29 -24 -55 -24 -57 0 -3
-10 -27 -21 -53 -49 -107 -60 -133 -114 -262 -32 -74 -66 -155 -77 -179 -11
-25 -46 -106 -78 -181 -32 -75 -67 -156 -78 -181 -11 -24 -65 -150 -120 -279
-235 -549 -264 -617 -283 -660 -12 -24 -25 -55 -30 -67 l-9 -23 960 0 c544 0
960 4 960 9 0 9 -21 62 -46 116 -7 17 -49 113 -92 215 -164 384 -474 1107
-492 1145 -10 23 -44 101 -75 175 -31 74 -63 149 -70 165 -8 17 -49 111 -90
210 -42 99 -80 186 -84 193 -5 9 -27 -31 -61 -110z"/>
</g>
</svg>
